<svg xmlns="http://www.w3.org/2000/svg" viewBox="0 15.399999618530273 272.79998779296875 38" data-asc="1.058" width="136.399993896484375" height="19"><defs/><g fill="#ffffff"><g transform="translate(0, 0)"><path d="M34.65 34.80Q34.65 45.10 28.85 49.15Q23.50 52.90 14.15 52.90L0 52.90L0 51.95L3.30 51.95L3.30 18.85L0 18.85L0 17.90L15.45 17.90Q25.05 17.90 29.85 21.83Q34.65 25.75 34.65 34.80M13.05 51.95L14.95 51.95Q20 51.95 22.18 48.38Q24.35 44.80 24.35 36.40L24.35 33.50Q24.35 22.25 20.05 19.95Q18 18.85 14.25 18.85L13.05 18.85L13.05 51.95ZM48.95 41.15L50.40 41.15L50.40 37.30Q50.40 32.55 49.88 30.93Q49.35 29.30 47.85 29.30Q46.95 29.30 46.23 29.78Q45.50 30.25 45.50 31.08Q45.50 31.90 45.80 32.75L47.05 32.75Q47.45 33.80 47.45 35.28Q47.45 36.75 46.20 37.83Q44.95 38.90 43.05 38.90Q38.75 38.90 38.75 34.75Q38.75 28.60 49.20 28.60Q55.15 28.60 57.43 30.63Q59.70 32.65 59.70 38.05L59.70 48.20Q59.70 50.80 61.15 50.80Q62.85 50.80 63.15 45.65L63.90 45.70Q63.70 50.10 62.25 51.75Q60.80 53.40 57.50 53.40Q51.50 53.40 50.60 49.70Q49.95 51.60 48.65 52.50Q47.35 53.40 44.85 53.40Q37.45 53.40 37.45 47.35Q37.45 43.80 40.28 42.48Q43.10 41.15 48.95 41.15M46.95 47.30Q46.95 49.90 47.23 50.65Q47.50 51.40 48.28 51.40Q49.05 51.40 49.73 50.13Q50.40 48.85 50.40 46.60L50.40 41.95L50.05 41.95Q46.95 41.95 46.95 46.50L46.95 47.30ZM66.15 45.75L66.15 30.00L63.40 30.00L63.40 29.10L66.15 29.10L66.15 22.65L75.45 20.35L75.45 29.10L81.95 29.10L81.95 30.00L75.45 30.00L75.45 46.85Q75.45 49.20 75.93 50.30Q76.40 51.40 77.90 51.40Q79.40 51.40 80.53 49.90Q81.65 48.40 82 45.80L82.85 45.90Q82.45 49.35 80.65 51.38Q78.85 53.40 74.70 53.40Q70.55 53.40 68.35 51.75Q66.15 50.10 66.15 45.75ZM95.35 41.15L96.80 41.15L96.80 37.30Q96.80 32.55 96.28 30.93Q95.75 29.30 94.25 29.30Q93.35 29.30 92.63 29.78Q91.90 30.25 91.90 31.08Q91.90 31.90 92.20 32.75L93.45 32.75Q93.85 33.80 93.85 35.28Q93.85 36.75 92.60 37.83Q91.35 38.90 89.45 38.90Q85.15 38.90 85.15 34.75Q85.15 28.60 95.60 28.60Q101.55 28.60 103.83 30.63Q106.10 32.65 106.10 38.05L106.10 48.20Q106.10 50.80 107.55 50.80Q109.25 50.80 109.55 45.65L110.30 45.70Q110.10 50.10 108.65 51.75Q107.20 53.40 103.90 53.40Q97.90 53.40 97.00 49.70Q96.35 51.60 95.05 52.50Q93.75 53.40 91.25 53.40Q83.85 53.40 83.85 47.35Q83.85 43.80 86.68 42.48Q89.50 41.15 95.35 41.15M93.35 47.30Q93.35 49.90 93.63 50.65Q93.90 51.40 94.68 51.40Q95.45 51.40 96.13 50.13Q96.80 48.85 96.80 46.60L96.80 41.95L96.45 41.95Q93.35 41.95 93.35 46.50L93.35 47.30ZM145.30 52.90L128.20 52.90L128.20 51.95L131.50 51.95L124.05 38.75L116.10 51.95L121.40 51.95L121.40 52.90L111.05 52.90L111.05 51.95L114.40 51.95L123.15 37.25L112.70 18.90L110.00 18.90L110.00 17.90L126.85 17.90L126.85 18.90L123.45 18.90L130.20 31.00L137.75 18.90L132.55 18.90L132.55 17.90L142.80 17.90L142.80 18.90L139.50 18.90L131.05 32.40L142.40 51.95L145.30 51.95L145.30 52.90ZM151.93 53.40Q151.93 53.40 150.84 53.40Q149.75 53.40 148.68 52.13Q147.60 50.85 147.60 49.03Q147.60 47.20 148.73 45.95Q149.85 44.70 151.90 44.70Q153.95 44.70 155.15 45.75Q156.35 46.80 156.35 48.90Q156.35 51.00 155.23 52.20Q154.10 53.40 151.93 53.40ZM178.60 18.35Q170.85 18.35 170.85 33.30L170.85 37.25Q170.85 44.35 172.90 48.38Q174.95 52.40 178.95 52.40Q184.45 52.40 189.05 41.70L189.95 41.70L189.60 52.85L189.05 52.85Q188.75 52.30 188.50 52.08Q188.25 51.85 187.78 51.85Q187.30 51.85 184.15 52.63Q181.00 53.40 177.75 53.40Q169.60 53.40 165.13 49.00Q160.65 44.60 160.65 35.78Q160.65 26.95 165.33 22.15Q170.00 17.35 177.90 17.35Q180.95 17.35 183.88 18.13Q186.80 18.90 187.30 18.90Q187.80 18.90 188.05 18.68Q188.30 18.45 188.60 17.90L189.15 17.90L189.55 28.75L188.65 28.75Q186.40 23.70 184.03 21.03Q181.65 18.35 178.60 18.35ZM205.60 41.15L207.05 41.15L207.05 37.30Q207.05 32.55 206.53 30.93Q206.00 29.30 204.50 29.30Q203.60 29.30 202.88 29.78Q202.15 30.25 202.15 31.08Q202.15 31.90 202.45 32.75L203.70 32.75Q204.10 33.80 204.10 35.28Q204.10 36.75 202.85 37.83Q201.60 38.90 199.70 38.90Q195.40 38.90 195.40 34.75Q195.40 28.60 205.85 28.60Q211.80 28.60 214.08 30.63Q216.35 32.65 216.35 38.05L216.35 48.20Q216.35 50.80 217.80 50.80Q219.50 50.80 219.80 45.65L220.55 45.70Q220.35 50.10 218.90 51.75Q217.45 53.40 214.15 53.40Q208.15 53.40 207.25 49.70Q206.60 51.60 205.30 52.50Q204.00 53.40 201.50 53.40Q194.10 53.40 194.10 47.35Q194.10 43.80 196.93 42.48Q199.75 41.15 205.60 41.15M203.60 47.30Q203.60 49.90 203.88 50.65Q204.15 51.40 204.93 51.40Q205.70 51.40 206.38 50.13Q207.05 48.85 207.05 46.60L207.05 41.95L206.70 41.95Q203.60 41.95 203.60 46.50L203.60 47.30ZM222.20 53.40L222.20 44.45L222.80 44.45Q224.10 48.80 226.30 50.55Q228.50 52.30 231.80 52.30Q236.90 52.30 236.90 49.05Q236.90 47.65 235.65 46.95Q233.70 45.85 230.65 45.25Q227.25 44.35 224.95 42.85Q222.20 41.05 222.20 37.15Q222.20 33.25 224.60 30.93Q227 28.60 231 28.60Q233.45 28.60 236.05 29.75Q237 30.15 237.50 30.15Q238 30.15 238.35 29.80Q238.70 29.45 239.20 28.50L239.75 28.50L239.75 36.15L239.15 36.15Q236.60 29.65 231.25 29.65Q228.90 29.65 227.75 30.48Q226.60 31.30 226.60 32.55Q226.60 33.30 226.95 33.73Q227.30 34.15 227.50 34.35Q227.70 34.55 228.15 34.78Q228.60 35 228.90 35.13Q229.20 35.25 229.83 35.45Q230.45 35.65 230.75 35.70Q234.15 36.55 235.65 37.18Q237.15 37.80 238.50 38.70Q241.25 40.60 241.25 44.83Q241.25 49.05 238.75 51.23Q236.25 53.40 231.90 53.40Q228.80 53.40 225.90 51.95Q225.30 51.55 224.95 51.55Q223.85 51.55 222.80 53.40L222.20 53.40ZM242.75 15.40L254.80 15.40L254.80 33.70Q255.60 31.40 257.25 30.00Q258.90 28.60 262.25 28.60Q270 28.60 270 36.95L270 52.00L272.80 52.00L272.80 52.90L258.65 52.90L258.65 52.00L260.70 52.00L260.70 35.75Q260.70 32.75 260.30 31.88Q259.90 31.00 258.85 31.00Q257.25 31.00 256.02 33.10Q254.80 35.20 254.80 38.20L254.80 52.00L256.95 52.00L256.95 52.90L242.75 52.90L242.75 52.00L245.50 52.00L245.50 16.30L242.75 16.30L242.75 15.40Z"/></g></g></svg>